<?xml version="1.0" standalone="no"?>
<!DOCTYPE svg PUBLIC "-//W3C//DTD SVG 20010904//EN"
 "http://www.w3.org/TR/2001/REC-SVG-20010904/DTD/svg10.dtd">
<svg version="1.0" xmlns="http://www.w3.org/2000/svg"
 width="233.000000pt" height="94.000000pt" viewBox="0 0 233.000000 94.000000"
 preserveAspectRatio="xMidYMid meet">

<g transform="translate(0.000000,94.000000) scale(0.100000,-0.100000)"
fill="#000000" stroke="none">
<path d="M404 743 c2 -10 8 -29 12 -43 7 -24 6 -24 -17 -7 -54 39 -67 42 -107
23 l-37 -18 25 -16 c32 -21 131 -120 152 -152 l15 -25 39 30 c50 38 80 70 112
119 l25 40 -27 23 c-35 30 -54 29 -62 -1 -3 -14 -14 -32 -24 -41 -17 -15 -18
-14 -25 34 l-7 51 -40 0 c-33 0 -39 -3 -34 -17z"/>
<path d="M1324 678 c-4 -7 2 -18 14 -26 20 -13 22 -23 22 -121 0 -101 1 -109
24 -131 15 -13 32 -20 40 -17 21 8 20 20 -4 42 -18 16 -20 31 -20 142 l0 123
-34 0 c-19 0 -38 -5 -42 -12z"/>
<path d="M1756 683 c-12 -12 -6 -33 9 -33 8 0 15 6 15 14 0 17 -14 28 -24 19z"/>
<path d="M1857 684 c-4 -4 -7 -23 -7 -42 0 -25 -5 -35 -20 -39 -11 -3 -20 -9
-20 -14 0 -4 9 -13 20 -19 17 -9 20 -21 20 -79 0 -58 3 -71 23 -89 41 -39 75
-18 38 22 -18 20 -22 33 -19 82 l3 59 38 3 c53 5 51 32 -2 32 -40 0 -40 0 -43
42 -3 39 -16 57 -31 42z"/>
<path d="M202 637 c-31 -33 -27 -49 18 -71 48 -23 41 -36 -24 -43 -44 -5 -46
-7 -46 -38 0 -38 18 -49 56 -34 38 14 39 6 5 -41 l-30 -41 22 -36 21 -36 21
29 c26 38 114 126 143 145 l24 14 -40 54 c-35 46 -123 121 -142 121 -4 0 -16
-10 -28 -23z"/>
<path d="M620 623 c-21 -36 -22 -40 -6 -66 9 -16 16 -33 16 -38 0 -5 -26 -9
-57 -9 -41 0 -65 -6 -83 -19 -22 -18 -23 -21 -10 -45 12 -24 19 -26 77 -26 35
0 63 -3 63 -6 0 -3 -11 -20 -25 -39 l-26 -33 27 -21 c46 -36 50 -34 182 128
l23 28 -64 79 c-91 113 -90 112 -117 67z"/>
<path d="M865 590 c-3 -5 3 -15 15 -22 18 -11 20 -23 20 -109 0 -91 -1 -97
-22 -102 -18 -5 -19 -8 -8 -22 18 -22 103 -17 108 6 2 10 -6 19 -18 22 -16 4
-21 12 -18 29 3 21 7 23 49 20 38 -3 51 1 75 21 39 34 41 102 5 141 -23 24
-31 26 -112 26 -48 0 -91 -4 -94 -10z m187 -54 c25 -38 -11 -90 -58 -84 -55 6
-64 79 -14 105 25 12 56 3 72 -21z"/>
<path d="M1164 585 c-34 -23 -48 -68 -34 -109 33 -100 173 -85 187 20 4 33 1
45 -22 72 -22 27 -34 32 -69 32 -23 0 -51 -7 -62 -15z m91 -40 c29 -28 31 -42
9 -73 -29 -42 -104 -18 -104 34 0 21 41 64 62 64 5 0 20 -11 33 -25z"/>
<path d="M1466 575 c-80 -86 10 -203 117 -154 29 13 47 48 47 90 0 77 -112
120 -164 64z m109 -31 c24 -25 16 -75 -16 -93 -24 -13 -29 -13 -53 2 -32 21
-37 80 -8 96 26 15 58 13 77 -5z"/>
<path d="M1710 586 c0 -7 9 -16 20 -19 17 -4 20 -14 20 -62 0 -48 -3 -58 -20
-62 -11 -3 -20 -12 -20 -19 0 -10 15 -14 55 -14 40 0 55 4 55 14 0 8 -7 16
-15 20 -11 4 -15 23 -15 81 l0 75 -40 0 c-27 0 -40 -4 -40 -14z"/>
<path d="M353 386 c-32 -30 -67 -71 -78 -91 l-19 -37 23 -19 c34 -28 55 -23
74 16 22 47 34 44 43 -11 6 -45 7 -45 43 -42 20 2 35 8 35 13 -1 6 -5 23 -8
39 -7 29 -7 29 16 13 73 -53 64 -51 104 -26 34 20 36 24 20 33 -58 35 -156
134 -156 157 0 24 -45 4 -97 -45z"/>
<path d="M1101 323 c-1 -72 -1 -73 25 -73 14 0 34 5 44 10 14 8 25 7 40 -2 16
-10 24 -10 41 0 15 10 24 11 32 3 15 -15 54 -14 63 1 5 8 2 9 -9 5 -21 -8 -49
2 -41 14 3 5 18 9 33 9 21 0 31 -6 36 -22 8 -23 8 -23 12 2 11 55 43 62 43 9
0 -16 5 -29 10 -29 6 0 10 4 10 9 0 5 13 4 29 -2 32 -12 61 2 61 29 0 17 12
18 28 2 17 -17 15 -28 -5 -21 -14 5 -16 3 -6 -7 15 -16 43 -6 43 15 0 9 -7 18
-15 21 -21 9 -19 25 3 17 14 -5 15 -4 4 8 -10 11 -16 11 -32 1 -16 -9 -24 -10
-39 0 -15 9 -26 9 -47 -1 -20 -9 -30 -9 -32 -2 -6 17 -60 13 -70 -5 -8 -15
-10 -15 -15 0 -8 20 -56 21 -63 1 -6 -14 -8 -13 -20 2 -12 17 -13 16 -14 -7
-1 -57 -40 -66 -40 -9 0 16 -4 29 -10 29 -5 0 -10 -5 -10 -12 0 -6 -7 -4 -18
5 -10 10 -28 17 -40 17 -15 0 -22 8 -25 28 -2 15 -5 -6 -6 -45z m64 -28 c0
-23 -34 -33 -46 -14 -10 17 9 41 30 37 9 -2 16 -12 16 -23z m160 15 c3 -5 -1
-10 -10 -10 -9 0 -13 5 -10 10 3 6 8 10 10 10 2 0 7 -4 10 -10z m185 -19 c0
-24 -25 -34 -40 -16 -15 18 -5 35 21 35 12 0 19 -7 19 -19z"/>
<path d="M1642 328 c-15 -15 -15 -51 0 -66 7 -7 27 -12 45 -12 32 0 33 1 33
43 0 43 -1 44 -33 45 -19 1 -39 -4 -45 -10z m53 -33 c0 -23 -34 -33 -46 -14
-10 17 9 41 30 37 9 -2 16 -12 16 -23z"/>
<path d="M1775 321 c-9 -9 -5 -60 5 -66 6 -3 10 4 10 16 0 12 7 30 16 40 15
17 15 18 -5 16 -12 -1 -24 -3 -26 -6z"/>
<path d="M1830 310 c-15 -28 4 -60 35 -60 13 0 27 5 31 11 4 7 0 9 -12 5 -20
-6 -52 8 -38 17 28 17 110 5 98 -14 -3 -5 -10 -7 -15 -4 -5 4 -9 1 -9 -4 0 -6
9 -11 20 -11 25 0 27 35 3 49 -17 10 -17 10 0 11 9 0 17 5 17 10 0 13 -37 13
-46 -1 -4 -8 -9 -8 -17 0 -18 18 -55 13 -67 -9z m45 0 c3 -5 -1 -10 -10 -10
-9 0 -13 5 -10 10 3 6 8 10 10 10 2 0 7 -4 10 -10z"/>
<path d="M1740 285 c0 -19 5 -35 10 -35 6 0 10 16 10 35 0 19 -4 35 -10 35 -5
0 -10 -16 -10 -35z"/>
</g>
</svg>
